<svg width="53" height="53" viewBox="0 0 53 53" fill="none" xmlns="http://www.w3.org/2000/svg">
<g id="Group">
<path id="Vector" d="M26.5001 0C19.3031 0 18.4006 0.030532 15.5741 0.159445C12.7534 0.288121 10.8271 0.736159 9.14144 1.39114C7.39883 2.06836 5.92099 2.97454 4.4478 4.44772C2.97454 5.92091 2.06836 7.39891 1.39122 9.14152C0.73608 10.8271 0.2882 12.7534 0.159366 15.5741C0.0304531 18.4006 0 19.3031 0 26.5001C0 33.6969 0.0304531 34.5994 0.159366 37.4259C0.2882 40.2466 0.73608 42.1729 1.39122 43.8585C2.06844 45.6011 2.97462 47.0789 4.4478 48.5523C5.92107 50.0255 7.39883 50.9316 9.14144 51.6089C10.8271 52.2638 12.7534 52.7118 15.5741 52.8406C18.4006 52.9695 19.3031 53 26.5001 53C33.6969 53 34.5994 52.9695 37.4259 52.8406C40.2466 52.7119 42.1729 52.2638 43.8585 51.6089C45.6011 50.9316 47.0789 50.0255 48.5523 48.5523C50.0255 47.0789 50.9316 45.6011 51.6089 43.8585C52.2638 42.1729 52.7119 40.2466 52.8406 37.4259C52.9695 34.5994 53 33.6969 53 26.5001C53 19.3031 52.9695 18.4006 52.8406 15.5741C52.7119 12.7534 52.2638 10.8271 51.6089 9.14152C50.9316 7.39891 50.0255 5.92091 48.5523 4.44772C47.0789 2.97454 45.6011 2.06836 43.8585 1.39114C42.1729 0.736159 40.2466 0.288121 37.4259 0.159445C34.5994 0.030532 33.6969 0 26.5001 0ZM26.5001 4.77474C33.5758 4.77474 34.4139 4.8018 37.2083 4.92929C39.792 5.04708 41.1952 5.47879 42.1289 5.8417C43.3659 6.32248 44.2487 6.89667 45.1759 7.82399C46.1033 8.75131 46.6775 9.63413 47.1583 10.871C47.5212 11.8048 47.9529 13.208 48.0707 15.7917C48.1982 18.5861 48.2253 19.4242 48.2253 26.5C48.2253 33.5758 48.1982 34.4139 48.0707 37.2083C47.9529 39.792 47.5212 41.1952 47.1583 42.1289C46.6775 43.3659 46.1033 44.2487 45.1759 45.1759C44.2487 46.1033 43.3659 46.6775 42.129 47.1583C41.1952 47.5212 39.792 47.9529 37.2083 48.0707C34.4144 48.1982 33.5763 48.2253 26.5 48.2253C19.4237 48.2253 18.5858 48.1982 15.7917 48.0706C13.2079 47.9529 11.8048 47.5212 10.8711 47.1583C9.63405 46.6775 8.75131 46.1033 7.82407 45.1759C6.89675 44.2487 6.32248 43.3659 5.8417 42.129C5.47879 41.1952 5.04716 39.792 4.92929 37.2083C4.8018 34.4139 4.77474 33.5758 4.77474 26.5C4.77474 19.4242 4.8018 18.5861 4.92929 15.7917C5.04716 13.2079 5.47879 11.8048 5.8417 10.8711C6.32248 9.63405 6.89675 8.75131 7.82399 7.82407C8.75131 6.89667 9.63413 6.32248 10.871 5.8417C11.8048 5.47879 13.208 5.04708 15.7917 4.92929C18.5861 4.8018 19.4242 4.77474 26.5 4.77474" fill="#100F0D"/>
<path id="Vector_2" d="M26.5001 35.3334C21.6214 35.3334 17.6666 31.3786 17.6666 26.5001C17.6666 21.6214 21.6214 17.6666 26.5001 17.6666C31.3786 17.6666 35.3334 21.6214 35.3334 26.5001C35.3334 31.3786 31.3786 35.3334 26.5001 35.3334ZM26.5001 12.8919C18.9844 12.8919 12.8919 18.9844 12.8919 26.5001C12.8919 34.0156 18.9844 40.1081 26.5001 40.1081C34.0156 40.1081 40.1081 34.0156 40.1081 26.5001C40.1081 18.9844 34.0156 12.8919 26.5001 12.8919ZM43.8258 12.3542C43.8258 14.1106 42.402 15.5342 40.6458 15.5342C38.8896 15.5342 37.4658 14.1106 37.4658 12.3542C37.4658 10.598 38.8896 9.17418 40.6458 9.17418C42.402 9.17418 43.8258 10.598 43.8258 12.3542Z" fill="#100F0D"/>
</g>
</svg>
