<svg width="67" height="67" viewBox="0 0 67 67" fill="none" xmlns="http://www.w3.org/2000/svg">
<g id="icon/linkedin">
<path id="vector" d="M58.625 12.0699V54.9301C58.625 55.9101 58.2357 56.8499 57.5428 57.5428C56.8499 58.2357 55.9101 58.625 54.9301 58.625H12.0699C11.0899 58.625 10.1501 58.2357 9.4572 57.5428C8.76428 56.8499 8.375 55.9101 8.375 54.9301V12.0699C8.375 11.0899 8.76428 10.1501 9.4572 9.4572C10.1501 8.76428 11.0899 8.375 12.0699 8.375H54.9301C55.9101 8.375 56.8499 8.76428 57.5428 9.4572C58.2357 10.1501 58.625 11.0899 58.625 12.0699ZM23.1544 27.5882H15.7647V51.2353H23.1544V27.5882ZM23.8195 19.4596C23.8234 18.9006 23.7171 18.3463 23.5068 17.8284C23.2965 17.3105 22.9862 16.8391 22.5937 16.4411C22.2012 16.0431 21.7342 15.7263 21.2192 15.5088C20.7043 15.2913 20.1515 15.1774 19.5926 15.1735H19.4596C18.3228 15.1735 17.2327 15.6251 16.4289 16.4289C15.6251 17.2327 15.1735 18.3228 15.1735 19.4596C15.1735 20.5963 15.6251 21.6865 16.4289 22.4902C17.2327 23.294 18.3228 23.7456 19.4596 23.7456C20.0186 23.7593 20.5748 23.6628 21.0965 23.4615C21.6182 23.2602 22.0951 22.9581 22.5 22.5724C22.9049 22.1868 23.2298 21.7251 23.4562 21.2138C23.6826 20.7025 23.8061 20.1516 23.8195 19.5926V19.4596ZM51.2353 36.8697C51.2353 29.7608 46.7128 26.9971 42.2199 26.9971C40.7488 26.9234 39.2841 27.2367 37.9719 27.9058C36.6597 28.5749 35.5459 29.5763 34.7415 30.8101H34.5346V27.5882H27.5882V51.2353H34.9779V38.658C34.8711 37.3699 35.2769 36.0916 36.1071 35.1009C36.9373 34.1103 38.1248 33.4871 39.4118 33.367H39.6926C42.0425 33.367 43.7865 34.8449 43.7865 38.5693V51.2353H51.1762L51.2353 36.8697Z" fill="black"/>
</g>
</svg>
